<svg width="47" height="47" viewBox="0 0 47 47" fill="none" xmlns="http://www.w3.org/2000/svg">
<rect width="47" height="47" rx="23.5" fill="url(#paint0_linear_2537_218)"/>
<mask id="mask0_2537_218" style="mask-type:alpha" maskUnits="userSpaceOnUse" x="12" y="11" width="24" height="24">
<rect x="12" y="11" width="24" height="24" fill="#D9D9D9"/>
</mask>
<g mask="url(#mask0_2537_218)">
<path d="M20.5 23C21.2 23 21.7833 22.7458 22.25 22.2375C22.7167 21.7292 23.0417 21.125 23.225 20.425L21.775 20.075C21.6917 20.4417 21.5458 20.7708 21.3375 21.0625C21.1292 21.3542 20.85 21.5 20.5 21.5C20.15 21.5 19.8708 21.3542 19.6625 21.0625C19.4542 20.7708 19.3083 20.4417 19.225 20.075L17.775 20.425C17.9583 21.125 18.2833 21.7292 18.75 22.2375C19.2167 22.7458 19.8 23 20.5 23ZM24 28.5C24.65 28.5 25.275 28.3542 25.875 28.0625C26.475 27.7708 27.0333 27.3333 27.55 26.75L26.45 25.75C26.0833 26.15 25.6917 26.4542 25.275 26.6625C24.8583 26.8708 24.4333 26.975 24 26.975C23.5667 26.975 23.1417 26.8708 22.725 26.6625C22.3083 26.4542 21.9167 26.15 21.55 25.75L20.45 26.75C20.9833 27.3333 21.5458 27.7708 22.1375 28.0625C22.7292 28.3542 23.35 28.5 24 28.5ZM27.5 23C28.2 23 28.7833 22.7458 29.25 22.2375C29.7167 21.7292 30.0417 21.125 30.225 20.425L28.775 20.075C28.6917 20.4417 28.5458 20.7708 28.3375 21.0625C28.1292 21.3542 27.85 21.5 27.5 21.5C27.15 21.5 26.8708 21.3542 26.6625 21.0625C26.4542 20.7708 26.3083 20.4417 26.225 20.075L24.775 20.425C24.9583 21.125 25.2833 21.7292 25.75 22.2375C26.2167 22.7458 26.8 23 27.5 23ZM24 33C22.6167 33 21.3167 32.7375 20.1 32.2125C18.8833 31.6875 17.825 30.975 16.925 30.075C16.025 29.175 15.3125 28.1167 14.7875 26.9C14.2625 25.6833 14 24.3833 14 23C14 21.6167 14.2625 20.3167 14.7875 19.1C15.3125 17.8833 16.025 16.825 16.925 15.925C17.825 15.025 18.8833 14.3125 20.1 13.7875C21.3167 13.2625 22.6167 13 24 13C25.3833 13 26.6833 13.2625 27.9 13.7875C29.1167 14.3125 30.175 15.025 31.075 15.925C31.975 16.825 32.6875 17.8833 33.2125 19.1C33.7375 20.3167 34 21.6167 34 23C34 24.3833 33.7375 25.6833 33.2125 26.9C32.6875 28.1167 31.975 29.175 31.075 30.075C30.175 30.975 29.1167 31.6875 27.9 32.2125C26.6833 32.7375 25.3833 33 24 33ZM24 31C26.2333 31 28.125 30.225 29.675 28.675C31.225 27.125 32 25.2333 32 23C32 20.7667 31.225 18.875 29.675 17.325C28.125 15.775 26.2333 15 24 15C21.7667 15 19.875 15.775 18.325 17.325C16.775 18.875 16 20.7667 16 23C16 25.2333 16.775 27.125 18.325 28.675C19.875 30.225 21.7667 31 24 31Z" fill="#F8F8F8"/>
</g>
<defs>
<linearGradient id="paint0_linear_2537_218" x1="3.74638" y1="1.67857" x2="41.1971" y2="45.6532" gradientUnits="userSpaceOnUse">
<stop stop-color="#00B4CA"/>
<stop offset="0.835" stop-color="#00BA98"/>
</linearGradient>
</defs>
</svg>
