<svg width="165" height="165" viewBox="0 0 165 165" fill="none" xmlns="http://www.w3.org/2000/svg">
<mask id="mask0_2464_7680" style="mask-type:alpha" maskUnits="userSpaceOnUse" x="0" y="0" width="165" height="165">
<rect width="165" height="165" fill="#D9D9D9"/>
</mask>
<g mask="url(#mask0_2464_7680)">
<path d="M13.75 151.25V27.5C13.75 23.7188 15.0964 20.4818 17.7891 17.7891C20.4818 15.0964 23.7188 13.75 27.5 13.75H137.5C141.281 13.75 144.518 15.0964 147.211 17.7891C149.904 20.4818 151.25 23.7188 151.25 27.5V110C151.25 113.781 149.904 117.018 147.211 119.711C144.518 122.404 141.281 123.75 137.5 123.75H41.25L13.75 151.25ZM35.4062 110H137.5V27.5H27.5V117.734L35.4062 110Z" fill="white"/>
</g>
</svg>
