<svg width="47" height="47" viewBox="0 0 47 47" fill="none" xmlns="http://www.w3.org/2000/svg">
<rect width="47" height="47" rx="23.5" fill="url(#paint0_linear_2537_230)"/>
<mask id="mask0_2537_230" style="mask-type:alpha" maskUnits="userSpaceOnUse" x="12" y="11" width="24" height="24">
<rect x="12" y="11" width="24" height="24" fill="#D9D9D9"/>
</mask>
<g mask="url(#mask0_2537_230)">
<path d="M21 32V27C19.9667 26.9167 18.9542 26.8 17.9625 26.65C16.9708 26.5 15.9833 26.2833 15 26L15.5 24C16.8833 24.3833 18.2833 24.6458 19.7 24.7875C21.1167 24.9292 22.55 25 24 25C25.4333 25 26.8583 24.9292 28.275 24.7875C29.6917 24.6458 31.1 24.3833 32.5 24L33 26C32 26.2833 31.0042 26.5 30.0125 26.65C29.0208 26.8 28.0167 26.9167 27 27V32H21ZM24 24C23.4333 24 22.9583 23.8083 22.575 23.425C22.1917 23.0417 22 22.5667 22 22C22 21.45 22.1917 20.9792 22.575 20.5875C22.9583 20.1958 23.4333 20 24 20C24.55 20 25.0208 20.1958 25.4125 20.5875C25.8042 20.9792 26 21.45 26 22C26 22.5667 25.8042 23.0417 25.4125 23.425C25.0208 23.8083 24.55 24 24 24ZM16.5 21C16.0667 21 15.7083 20.8583 15.425 20.575C15.1417 20.2917 15 19.9333 15 19.5C15 19.0833 15.1417 18.7292 15.425 18.4375C15.7083 18.1458 16.0667 18 16.5 18C16.9167 18 17.2708 18.1458 17.5625 18.4375C17.8542 18.7292 18 19.0833 18 19.5C18 19.9333 17.8542 20.2917 17.5625 20.575C17.2708 20.8583 16.9167 21 16.5 21ZM31.5 21C31.0667 21 30.7083 20.8583 30.425 20.575C30.1417 20.2917 30 19.9333 30 19.5C30 19.0833 30.1417 18.7292 30.425 18.4375C30.7083 18.1458 31.0667 18 31.5 18C31.9167 18 32.2708 18.1458 32.5625 18.4375C32.8542 18.7292 33 19.0833 33 19.5C33 19.9333 32.8542 20.2917 32.5625 20.575C32.2708 20.8583 31.9167 21 31.5 21ZM19.25 17.25C18.8167 17.25 18.4583 17.1083 18.175 16.825C17.8917 16.5417 17.75 16.1833 17.75 15.75C17.75 15.3333 17.8917 14.9792 18.175 14.6875C18.4583 14.3958 18.8167 14.25 19.25 14.25C19.6667 14.25 20.0208 14.3958 20.3125 14.6875C20.6042 14.9792 20.75 15.3333 20.75 15.75C20.75 16.1833 20.6042 16.5417 20.3125 16.825C20.0208 17.1083 19.6667 17.25 19.25 17.25ZM28.75 17.25C28.3167 17.25 27.9583 17.1083 27.675 16.825C27.3917 16.5417 27.25 16.1833 27.25 15.75C27.25 15.3333 27.3917 14.9792 27.675 14.6875C27.9583 14.3958 28.3167 14.25 28.75 14.25C29.1667 14.25 29.5208 14.3958 29.8125 14.6875C30.1042 14.9792 30.25 15.3333 30.25 15.75C30.25 16.1833 30.1042 16.5417 29.8125 16.825C29.5208 17.1083 29.1667 17.25 28.75 17.25ZM24 16C23.5667 16 23.2083 15.8583 22.925 15.575C22.6417 15.2917 22.5 14.9333 22.5 14.5C22.5 14.0833 22.6417 13.7292 22.925 13.4375C23.2083 13.1458 23.5667 13 24 13C24.4167 13 24.7708 13.1458 25.0625 13.4375C25.3542 13.7292 25.5 14.0833 25.5 14.5C25.5 14.9333 25.3542 15.2917 25.0625 15.575C24.7708 15.8583 24.4167 16 24 16Z" fill="#F8F8F8"/>
</g>
<defs>
<linearGradient id="paint0_linear_2537_230" x1="3.74638" y1="1.67857" x2="41.1971" y2="45.6532" gradientUnits="userSpaceOnUse">
<stop stop-color="#00B4CA"/>
<stop offset="0.835" stop-color="#00BA98"/>
</linearGradient>
</defs>
</svg>
