<svg width="391" height="785" viewBox="0 0 391 785" fill="none" xmlns="http://www.w3.org/2000/svg">
<g clip-path="url(#clip0_2537_703)">
<path d="M391 328C391 329.105 390.105 330 389 330L386 330L386 231L389 231C390.105 231 391 231.895 391 233L391 328Z" fill="#373737"/>
<path opacity="0.76" d="M391 328C391 329.105 390.105 330 389 330L386 330L386 231L389 231C390.105 231 391 231.895 391 233L391 328Z" fill="url(#paint0_linear_2537_703)"/>
<path d="M391 328C391 329.105 390.105 330 389 330L386 330L386 231L389 231C390.105 231 391 231.895 391 233L391 328Z" fill="url(#paint1_linear_2537_703)"/>
<path opacity="0.48" d="M391 328C391 329.105 390.105 330 389 330L386 330L386 231L389 231C390.105 231 391 231.895 391 233L391 328Z" fill="url(#paint2_linear_2537_703)"/>
<g filter="url(#filter0_f_2537_703)">
<path d="M390 237.5C390 237.776 389.776 238 389.5 238C389.224 238 389 237.776 389 237.5L389 236L390 236L390 237.5Z" fill="#909090"/>
</g>
<g filter="url(#filter1_f_2537_703)">
<path d="M390 324L389 324L389 233.5C389 233.224 389.224 233 389.5 233C389.776 233 390 233.224 390 233.5L390 324Z" fill="#555555" fill-opacity="0.8"/>
</g>
<g filter="url(#filter2_f_2537_703)">
<path d="M391 326L390 326L390 231.5C390 231.224 390.224 231 390.5 231C390.776 231 391 231.224 391 231.5L391 326Z" fill="black"/>
</g>
</g>
<g clip-path="url(#clip1_2537_703)">
<path d="M391 562C391 563.105 390.105 564 389 564L386 564L386 465L389 465C390.105 465 391 465.895 391 467L391 562Z" fill="#373737"/>
<path opacity="0.76" d="M391 562C391 563.105 390.105 564 389 564L386 564L386 465L389 465C390.105 465 391 465.895 391 467L391 562Z" fill="url(#paint3_linear_2537_703)"/>
<path d="M391 562C391 563.105 390.105 564 389 564L386 564L386 465L389 465C390.105 465 391 465.895 391 467L391 562Z" fill="url(#paint4_linear_2537_703)"/>
<path opacity="0.48" d="M391 562C391 563.105 390.105 564 389 564L386 564L386 465L389 465C390.105 465 391 465.895 391 467L391 562Z" fill="url(#paint5_linear_2537_703)"/>
<g filter="url(#filter3_f_2537_703)">
<path d="M390 558L389 558L389 467.5C389 467.224 389.224 467 389.5 467C389.776 467 390 467.224 390 467.5L390 558Z" fill="#555555" fill-opacity="0.8"/>
</g>
<g filter="url(#filter4_f_2537_703)">
<path d="M391 560L390 560L390 465.5C390 465.224 390.224 465 390.5 465C390.776 465 391 465.224 391 465.5L391 560Z" fill="black"/>
</g>
</g>
<g clip-path="url(#clip2_2537_703)">
<path d="M0 151C0 149.895 0.895431 149 2 149H5V180H2C0.89543 180 0 179.105 0 178V151Z" fill="#373737"/>
<path opacity="0.76" d="M0 151C0 149.895 0.895431 149 2 149H5V180H2C0.89543 180 0 179.105 0 178V151Z" fill="url(#paint6_linear_2537_703)"/>
<path d="M0 151C0 149.895 0.895431 149 2 149H5V180H2C0.89543 180 0 179.105 0 178V151Z" fill="url(#paint7_linear_2537_703)"/>
<path opacity="0.48" d="M0 151C0 149.895 0.895431 149 2 149H5V180H2C0.89543 180 0 179.105 0 178V151Z" fill="url(#paint8_linear_2537_703)"/>
<g filter="url(#filter5_f_2537_703)">
<path d="M1 150.5C1 150.224 1.22386 150 1.5 150C1.77614 150 2 150.224 2 150.5V152H1V150.5Z" fill="#909090"/>
</g>
<g filter="url(#filter6_f_2537_703)">
<path d="M1 152H2V177.5C2 177.776 1.77614 178 1.5 178C1.22386 178 1 177.776 1 177.5V152Z" fill="#555555" fill-opacity="0.8"/>
</g>
<g filter="url(#filter7_f_2537_703)">
<path d="M0 148H1V181.5C1 181.776 0.776142 182 0.5 182C0.223858 182 0 181.776 0 181.5V148Z" fill="black"/>
</g>
</g>
<g clip-path="url(#clip3_2537_703)">
<path d="M0 211C0 209.895 0.895431 209 2 209H5V265H2C0.89543 265 0 264.105 0 263V211Z" fill="#373737"/>
<path opacity="0.76" d="M0 211C0 209.895 0.895431 209 2 209H5V265H2C0.89543 265 0 264.105 0 263V211Z" fill="url(#paint9_linear_2537_703)"/>
<path d="M0 211C0 209.895 0.895431 209 2 209H5V265H2C0.89543 265 0 264.105 0 263V211Z" fill="url(#paint10_linear_2537_703)"/>
<path opacity="0.48" d="M0 211C0 209.895 0.895431 209 2 209H5V265H2C0.89543 265 0 264.105 0 263V211Z" fill="url(#paint11_linear_2537_703)"/>
<g filter="url(#filter8_f_2537_703)">
<path d="M1 210.5C1 210.224 1.22386 210 1.5 210C1.77614 210 2 210.224 2 210.5V213H1V210.5Z" fill="#909090"/>
</g>
<g filter="url(#filter9_f_2537_703)">
<path d="M1 212H2V263.5C2 263.776 1.77614 264 1.5 264C1.22386 264 1 263.776 1 263.5V212Z" fill="#555555" fill-opacity="0.8"/>
</g>
<g filter="url(#filter10_f_2537_703)">
<path d="M0 209H1V266.5C1 266.776 0.776142 267 0.5 267C0.223858 267 0 266.776 0 266.5V209Z" fill="black"/>
</g>
</g>
<g clip-path="url(#clip4_2537_703)">
<path d="M0 284C0 282.895 0.895431 282 2 282H5V338H2C0.89543 338 0 337.105 0 336V284Z" fill="#373737"/>
<path opacity="0.76" d="M0 284C0 282.895 0.895431 282 2 282H5V338H2C0.89543 338 0 337.105 0 336V284Z" fill="url(#paint12_linear_2537_703)"/>
<path d="M0 284C0 282.895 0.895431 282 2 282H5V338H2C0.89543 338 0 337.105 0 336V284Z" fill="url(#paint13_linear_2537_703)"/>
<path opacity="0.48" d="M0 284C0 282.895 0.895431 282 2 282H5V338H2C0.89543 338 0 337.105 0 336V284Z" fill="url(#paint14_linear_2537_703)"/>
<g filter="url(#filter11_f_2537_703)">
<path d="M1 284.5C1 284.224 1.22386 284 1.5 284C1.77614 284 2 284.224 2 284.5V286H1V284.5Z" fill="#909090"/>
</g>
<g filter="url(#filter12_f_2537_703)">
<path d="M1 285H2V336.5C2 336.776 1.77614 337 1.5 337C1.22386 337 1 336.776 1 336.5V285Z" fill="#555555" fill-opacity="0.8"/>
</g>
<g filter="url(#filter13_f_2537_703)">
<path d="M0 282H1V339.5C1 339.776 0.776142 340 0.5 340C0.223858 340 0 339.776 0 339.5V282Z" fill="black"/>
</g>
</g>
<g clip-path="url(#clip5_2537_703)">
<rect x="3" width="385" height="785" rx="62" fill="black"/>
</g>
<g clip-path="url(#clip6_2537_703)">
<g filter="url(#filter14_f_2537_703)">
<rect x="4.5" y="1.5" width="382" height="782" rx="60.5" stroke="#7B7B7B" stroke-width="3"/>
</g>
</g>
<g clip-path="url(#clip7_2537_703)">
<g filter="url(#filter15_f_2537_703)">
<rect x="3.5" y="0.5" width="384" height="784" rx="61.5" stroke="black"/>
</g>
</g>
<g filter="url(#filter16_f_2537_703)">
<rect x="8.5" y="5.5" width="375" height="775" rx="57.5" stroke="#5F5F5F"/>
</g>
<rect x="6.8" y="3.8" width="377.4" height="777.4" rx="58.2" stroke="#232323" stroke-width="0.4"/>
<rect x="304" width="6" height="4" fill="url(#paint15_linear_2537_703)"/>
<rect x="3" y="87" width="6" height="4" transform="rotate(-90 3 87)" fill="url(#paint16_linear_2537_703)"/>
<rect x="3" y="698" width="4" height="6" fill="url(#paint17_linear_2537_703)"/>
<rect x="66" y="781" width="5" height="4" fill="url(#paint18_linear_2537_703)"/>
<rect x="384" y="698" width="4" height="6" fill="url(#paint19_linear_2537_703)"/>
<g clip-path="url(#clip8_2537_703)">
<rect x="7" y="4" width="377" height="777" rx="58" fill="#000100"/>
<g filter="url(#filter17_f_2537_703)">
<rect x="9" y="6" width="373" height="773" rx="56" stroke="url(#paint20_radial_2537_703)" stroke-width="4"/>
</g>
</g>
<defs>
<filter id="filter0_f_2537_703" x="388" y="235" width="3" height="4" filterUnits="userSpaceOnUse" color-interpolation-filters="sRGB">
<feFlood flood-opacity="0" result="BackgroundImageFix"/>
<feBlend mode="normal" in="SourceGraphic" in2="BackgroundImageFix" result="shape"/>
<feGaussianBlur stdDeviation="0.5" result="effect1_foregroundBlur_2537_703"/>
</filter>
<filter id="filter1_f_2537_703" x="388" y="232" width="3" height="93" filterUnits="userSpaceOnUse" color-interpolation-filters="sRGB">
<feFlood flood-opacity="0" result="BackgroundImageFix"/>
<feBlend mode="normal" in="SourceGraphic" in2="BackgroundImageFix" result="shape"/>
<feGaussianBlur stdDeviation="0.5" result="effect1_foregroundBlur_2537_703"/>
</filter>
<filter id="filter2_f_2537_703" x="388" y="229" width="5" height="99" filterUnits="userSpaceOnUse" color-interpolation-filters="sRGB">
<feFlood flood-opacity="0" result="BackgroundImageFix"/>
<feBlend mode="normal" in="SourceGraphic" in2="BackgroundImageFix" result="shape"/>
<feGaussianBlur stdDeviation="1" result="effect1_foregroundBlur_2537_703"/>
</filter>
<filter id="filter3_f_2537_703" x="388" y="466" width="3" height="93" filterUnits="userSpaceOnUse" color-interpolation-filters="sRGB">
<feFlood flood-opacity="0" result="BackgroundImageFix"/>
<feBlend mode="normal" in="SourceGraphic" in2="BackgroundImageFix" result="shape"/>
<feGaussianBlur stdDeviation="0.5" result="effect1_foregroundBlur_2537_703"/>
</filter>
<filter id="filter4_f_2537_703" x="388" y="463" width="5" height="99" filterUnits="userSpaceOnUse" color-interpolation-filters="sRGB">
<feFlood flood-opacity="0" result="BackgroundImageFix"/>
<feBlend mode="normal" in="SourceGraphic" in2="BackgroundImageFix" result="shape"/>
<feGaussianBlur stdDeviation="1" result="effect1_foregroundBlur_2537_703"/>
</filter>
<filter id="filter5_f_2537_703" x="0" y="149" width="3" height="4" filterUnits="userSpaceOnUse" color-interpolation-filters="sRGB">
<feFlood flood-opacity="0" result="BackgroundImageFix"/>
<feBlend mode="normal" in="SourceGraphic" in2="BackgroundImageFix" result="shape"/>
<feGaussianBlur stdDeviation="0.5" result="effect1_foregroundBlur_2537_703"/>
</filter>
<filter id="filter6_f_2537_703" x="0" y="151" width="3" height="28" filterUnits="userSpaceOnUse" color-interpolation-filters="sRGB">
<feFlood flood-opacity="0" result="BackgroundImageFix"/>
<feBlend mode="normal" in="SourceGraphic" in2="BackgroundImageFix" result="shape"/>
<feGaussianBlur stdDeviation="0.5" result="effect1_foregroundBlur_2537_703"/>
</filter>
<filter id="filter7_f_2537_703" x="-2" y="146" width="5" height="38" filterUnits="userSpaceOnUse" color-interpolation-filters="sRGB">
<feFlood flood-opacity="0" result="BackgroundImageFix"/>
<feBlend mode="normal" in="SourceGraphic" in2="BackgroundImageFix" result="shape"/>
<feGaussianBlur stdDeviation="1" result="effect1_foregroundBlur_2537_703"/>
</filter>
<filter id="filter8_f_2537_703" x="0" y="209" width="3" height="5" filterUnits="userSpaceOnUse" color-interpolation-filters="sRGB">
<feFlood flood-opacity="0" result="BackgroundImageFix"/>
<feBlend mode="normal" in="SourceGraphic" in2="BackgroundImageFix" result="shape"/>
<feGaussianBlur stdDeviation="0.5" result="effect1_foregroundBlur_2537_703"/>
</filter>
<filter id="filter9_f_2537_703" x="0" y="211" width="3" height="54" filterUnits="userSpaceOnUse" color-interpolation-filters="sRGB">
<feFlood flood-opacity="0" result="BackgroundImageFix"/>
<feBlend mode="normal" in="SourceGraphic" in2="BackgroundImageFix" result="shape"/>
<feGaussianBlur stdDeviation="0.5" result="effect1_foregroundBlur_2537_703"/>
</filter>
<filter id="filter10_f_2537_703" x="-2" y="207" width="5" height="62" filterUnits="userSpaceOnUse" color-interpolation-filters="sRGB">
<feFlood flood-opacity="0" result="BackgroundImageFix"/>
<feBlend mode="normal" in="SourceGraphic" in2="BackgroundImageFix" result="shape"/>
<feGaussianBlur stdDeviation="1" result="effect1_foregroundBlur_2537_703"/>
</filter>
<filter id="filter11_f_2537_703" x="0" y="283" width="3" height="4" filterUnits="userSpaceOnUse" color-interpolation-filters="sRGB">
<feFlood flood-opacity="0" result="BackgroundImageFix"/>
<feBlend mode="normal" in="SourceGraphic" in2="BackgroundImageFix" result="shape"/>
<feGaussianBlur stdDeviation="0.5" result="effect1_foregroundBlur_2537_703"/>
</filter>
<filter id="filter12_f_2537_703" x="0" y="284" width="3" height="54" filterUnits="userSpaceOnUse" color-interpolation-filters="sRGB">
<feFlood flood-opacity="0" result="BackgroundImageFix"/>
<feBlend mode="normal" in="SourceGraphic" in2="BackgroundImageFix" result="shape"/>
<feGaussianBlur stdDeviation="0.5" result="effect1_foregroundBlur_2537_703"/>
</filter>
<filter id="filter13_f_2537_703" x="-2" y="280" width="5" height="62" filterUnits="userSpaceOnUse" color-interpolation-filters="sRGB">
<feFlood flood-opacity="0" result="BackgroundImageFix"/>
<feBlend mode="normal" in="SourceGraphic" in2="BackgroundImageFix" result="shape"/>
<feGaussianBlur stdDeviation="1" result="effect1_foregroundBlur_2537_703"/>
</filter>
<filter id="filter14_f_2537_703" x="-1" y="-4" width="393" height="793" filterUnits="userSpaceOnUse" color-interpolation-filters="sRGB">
<feFlood flood-opacity="0" result="BackgroundImageFix"/>
<feBlend mode="normal" in="SourceGraphic" in2="BackgroundImageFix" result="shape"/>
<feGaussianBlur stdDeviation="2" result="effect1_foregroundBlur_2537_703"/>
</filter>
<filter id="filter15_f_2537_703" x="1" y="-2" width="389" height="789" filterUnits="userSpaceOnUse" color-interpolation-filters="sRGB">
<feFlood flood-opacity="0" result="BackgroundImageFix"/>
<feBlend mode="normal" in="SourceGraphic" in2="BackgroundImageFix" result="shape"/>
<feGaussianBlur stdDeviation="1" result="effect1_foregroundBlur_2537_703"/>
</filter>
<filter id="filter16_f_2537_703" x="6" y="3" width="380" height="780" filterUnits="userSpaceOnUse" color-interpolation-filters="sRGB">
<feFlood flood-opacity="0" result="BackgroundImageFix"/>
<feBlend mode="normal" in="SourceGraphic" in2="BackgroundImageFix" result="shape"/>
<feGaussianBlur stdDeviation="1" result="effect1_foregroundBlur_2537_703"/>
</filter>
<filter id="filter17_f_2537_703" x="0" y="-3" width="391" height="791" filterUnits="userSpaceOnUse" color-interpolation-filters="sRGB">
<feFlood flood-opacity="0" result="BackgroundImageFix"/>
<feBlend mode="normal" in="SourceGraphic" in2="BackgroundImageFix" result="shape"/>
<feGaussianBlur stdDeviation="3.5" result="effect1_foregroundBlur_2537_703"/>
</filter>
<linearGradient id="paint0_linear_2537_703" x1="388.5" y1="330" x2="388.5" y2="325.5" gradientUnits="userSpaceOnUse">
<stop/>
<stop offset="1" stop-opacity="0"/>
</linearGradient>
<linearGradient id="paint1_linear_2537_703" x1="386" y1="330" x2="389.5" y2="330" gradientUnits="userSpaceOnUse">
<stop/>
<stop offset="1" stop-color="#AEAEAE" stop-opacity="0"/>
</linearGradient>
<linearGradient id="paint2_linear_2537_703" x1="388.5" y1="235.5" x2="388.5" y2="231" gradientUnits="userSpaceOnUse">
<stop stop-opacity="0"/>
<stop offset="1"/>
</linearGradient>
<linearGradient id="paint3_linear_2537_703" x1="388.5" y1="564" x2="388.5" y2="559.5" gradientUnits="userSpaceOnUse">
<stop/>
<stop offset="1" stop-opacity="0"/>
</linearGradient>
<linearGradient id="paint4_linear_2537_703" x1="386" y1="564" x2="389.5" y2="564" gradientUnits="userSpaceOnUse">
<stop/>
<stop offset="1" stop-color="#AEAEAE" stop-opacity="0"/>
</linearGradient>
<linearGradient id="paint5_linear_2537_703" x1="388.5" y1="469.5" x2="388.5" y2="465" gradientUnits="userSpaceOnUse">
<stop stop-opacity="0"/>
<stop offset="1"/>
</linearGradient>
<linearGradient id="paint6_linear_2537_703" x1="2.5" y1="149" x2="2.5" y2="152" gradientUnits="userSpaceOnUse">
<stop/>
<stop offset="1" stop-opacity="0"/>
</linearGradient>
<linearGradient id="paint7_linear_2537_703" x1="5" y1="149" x2="1.5" y2="149" gradientUnits="userSpaceOnUse">
<stop/>
<stop offset="1" stop-color="#AEAEAE" stop-opacity="0"/>
</linearGradient>
<linearGradient id="paint8_linear_2537_703" x1="2.5" y1="174.697" x2="2.5" y2="180" gradientUnits="userSpaceOnUse">
<stop stop-opacity="0"/>
<stop offset="1"/>
</linearGradient>
<linearGradient id="paint9_linear_2537_703" x1="2.5" y1="209" x2="2.5" y2="213" gradientUnits="userSpaceOnUse">
<stop/>
<stop offset="1" stop-opacity="0"/>
</linearGradient>
<linearGradient id="paint10_linear_2537_703" x1="5" y1="209" x2="1.5" y2="209" gradientUnits="userSpaceOnUse">
<stop/>
<stop offset="1" stop-color="#AEAEAE" stop-opacity="0"/>
</linearGradient>
<linearGradient id="paint11_linear_2537_703" x1="2.5" y1="261" x2="2.5" y2="265" gradientUnits="userSpaceOnUse">
<stop stop-opacity="0"/>
<stop offset="1"/>
</linearGradient>
<linearGradient id="paint12_linear_2537_703" x1="2.5" y1="282" x2="2.5" y2="286" gradientUnits="userSpaceOnUse">
<stop/>
<stop offset="1" stop-opacity="0"/>
</linearGradient>
<linearGradient id="paint13_linear_2537_703" x1="5" y1="282" x2="1.5" y2="282" gradientUnits="userSpaceOnUse">
<stop/>
<stop offset="1" stop-color="#AEAEAE" stop-opacity="0"/>
</linearGradient>
<linearGradient id="paint14_linear_2537_703" x1="2.5" y1="334" x2="2.5" y2="338" gradientUnits="userSpaceOnUse">
<stop stop-opacity="0"/>
<stop offset="1"/>
</linearGradient>
<linearGradient id="paint15_linear_2537_703" x1="307" y1="0" x2="307" y2="4" gradientUnits="userSpaceOnUse">
<stop stop-color="#393939"/>
<stop offset="1" stop-color="#4E4E4E"/>
</linearGradient>
<linearGradient id="paint16_linear_2537_703" x1="6" y1="87" x2="6" y2="91" gradientUnits="userSpaceOnUse">
<stop stop-color="#393939"/>
<stop offset="1" stop-color="#4E4E4E"/>
</linearGradient>
<linearGradient id="paint17_linear_2537_703" x1="3" y1="701" x2="7" y2="701" gradientUnits="userSpaceOnUse">
<stop stop-color="#393939"/>
<stop offset="1" stop-color="#4E4E4E"/>
</linearGradient>
<linearGradient id="paint18_linear_2537_703" x1="68.5" y1="785" x2="68.5" y2="781" gradientUnits="userSpaceOnUse">
<stop stop-color="#393939"/>
<stop offset="1" stop-color="#4E4E4E"/>
</linearGradient>
<linearGradient id="paint19_linear_2537_703" x1="388" y1="701" x2="384" y2="701" gradientUnits="userSpaceOnUse">
<stop stop-color="#393939"/>
<stop offset="1" stop-color="#4E4E4E"/>
</linearGradient>
<radialGradient id="paint20_radial_2537_703" cx="0" cy="0" r="1" gradientUnits="userSpaceOnUse" gradientTransform="translate(195.975 183.272) rotate(90) scale(318.289 360.211)">
<stop stop-color="#879194"/>
<stop offset="1"/>
</radialGradient>
<clipPath id="clip0_2537_703">
<path d="M391 329C391 330.105 390.105 331 389 331L386 331L386 238L389 238C390.105 238 391 238.895 391 240L391 329Z" fill="white"/>
</clipPath>
<clipPath id="clip1_2537_703">
<path d="M391 563C391 564.105 390.105 565 389 565L386 565L386 481L389 481C390.105 481 391 481.895 391 483L391 563Z" fill="white"/>
</clipPath>
<clipPath id="clip2_2537_703">
<path d="M0 151C0 149.895 0.895431 149 2 149H5V180H2C0.89543 180 0 179.105 0 178V151Z" fill="white"/>
</clipPath>
<clipPath id="clip3_2537_703">
<path d="M0 211C0 209.895 0.895431 209 2 209H5V265H2C0.89543 265 0 264.105 0 263V211Z" fill="white"/>
</clipPath>
<clipPath id="clip4_2537_703">
<path d="M0 284C0 282.895 0.895431 282 2 282H5V338H2C0.89543 338 0 337.105 0 336V284Z" fill="white"/>
</clipPath>
<clipPath id="clip5_2537_703">
<rect x="3" width="385" height="785" rx="62" fill="white"/>
</clipPath>
<clipPath id="clip6_2537_703">
<rect x="3" width="385" height="785" rx="62" fill="white"/>
</clipPath>
<clipPath id="clip7_2537_703">
<rect x="3" width="385" height="785" rx="62" fill="white"/>
</clipPath>
<clipPath id="clip8_2537_703">
<rect x="7" y="4" width="377" height="777" rx="58" fill="white"/>
</clipPath>
</defs>
</svg>
