<svg width="165" height="165" viewBox="0 0 165 165" fill="none" xmlns="http://www.w3.org/2000/svg">
<mask id="mask0_2464_7692" style="mask-type:alpha" maskUnits="userSpaceOnUse" x="0" y="0" width="165" height="165">
<rect width="165" height="165" fill="#D9D9D9"/>
</mask>
<g mask="url(#mask0_2464_7692)">
<path d="M134.062 106.562L124.266 96.9375L131.828 89.375H110V75.625H131.656L124.266 68.2344L134.062 58.4375L158.125 82.5L134.062 106.562ZM13.75 34.375V20.625H96.25V34.375H13.75ZM44.6875 120.312H65.3125V103.125H82.5V82.5H65.3125V65.3125H44.6875V82.5H27.5V103.125H44.6875V120.312ZM20.625 144.375C16.8438 144.375 13.6068 143.029 10.9141 140.336C8.22135 137.643 6.875 134.406 6.875 130.625V55C6.875 51.2188 8.22135 47.9818 10.9141 45.2891C13.6068 42.5964 16.8438 41.25 20.625 41.25H89.375C93.1562 41.25 96.3932 42.5964 99.0859 45.2891C101.779 47.9818 103.125 51.2188 103.125 55V130.625C103.125 134.406 101.779 137.643 99.0859 140.336C96.3932 143.029 93.1562 144.375 89.375 144.375H20.625ZM20.625 130.625H89.375V55H20.625V130.625Z" fill="white"/>
</g>
</svg>
