<svg width="47" height="47" viewBox="0 0 47 47" fill="none" xmlns="http://www.w3.org/2000/svg">
<rect width="47" height="47" rx="23.5" fill="url(#paint0_linear_2537_224)"/>
<mask id="mask0_2537_224" style="mask-type:alpha" maskUnits="userSpaceOnUse" x="11" y="11" width="24" height="24">
<rect x="11" y="11" width="24" height="24" fill="#D9D9D9"/>
</mask>
<g mask="url(#mask0_2537_224)">
<path d="M26.5 30.925L22.25 26.675L23.65 25.275L26.5 28.125L32.15 22.475L33.55 23.875L26.5 30.925ZM32 21H30V16H28V19H18V16H16V30H22V32H16C15.45 32 14.9792 31.8042 14.5875 31.4125C14.1958 31.0208 14 30.55 14 30V16C14 15.45 14.1958 14.9792 14.5875 14.5875C14.9792 14.1958 15.45 14 16 14H20.175C20.3583 13.4167 20.7167 12.9375 21.25 12.5625C21.7833 12.1875 22.3667 12 23 12C23.6667 12 24.2625 12.1875 24.7875 12.5625C25.3125 12.9375 25.6667 13.4167 25.85 14H30C30.55 14 31.0208 14.1958 31.4125 14.5875C31.8042 14.9792 32 15.45 32 16V21ZM23 16C23.2833 16 23.5208 15.9042 23.7125 15.7125C23.9042 15.5208 24 15.2833 24 15C24 14.7167 23.9042 14.4792 23.7125 14.2875C23.5208 14.0958 23.2833 14 23 14C22.7167 14 22.4792 14.0958 22.2875 14.2875C22.0958 14.4792 22 14.7167 22 15C22 15.2833 22.0958 15.5208 22.2875 15.7125C22.4792 15.9042 22.7167 16 23 16Z" fill="#F8F8F8"/>
</g>
<defs>
<linearGradient id="paint0_linear_2537_224" x1="3.74638" y1="1.67857" x2="41.1971" y2="45.6532" gradientUnits="userSpaceOnUse">
<stop stop-color="#00B4CA"/>
<stop offset="0.835" stop-color="#00BA98"/>
</linearGradient>
</defs>
</svg>
