<svg width="165" height="165" viewBox="0 0 165 165" fill="none" xmlns="http://www.w3.org/2000/svg">
<mask id="mask0_2464_7686" style="mask-type:alpha" maskUnits="userSpaceOnUse" x="0" y="0" width="165" height="165">
<rect width="165" height="165" fill="#D9D9D9"/>
</mask>
<g mask="url(#mask0_2464_7686)">
<path d="M119.281 144.375L94.875 119.969L104.672 110.344L119.281 124.953L148.5 95.7344L158.125 105.531L119.281 144.375ZM92.8125 151.25C80.4375 151.25 69.8958 146.896 61.1875 138.188C52.4792 129.479 48.125 118.938 48.125 106.562V102.609C38.2708 101.005 30.0781 96.3932 23.5469 88.7734C17.0156 81.1536 13.75 72.1875 13.75 61.875V20.625H34.375V13.75H48.125V41.25H34.375V34.375H27.5V61.875C27.5 69.4375 30.1927 75.9115 35.5781 81.2969C40.9635 86.6823 47.4375 89.375 55 89.375C62.5625 89.375 69.0365 86.6823 74.4219 81.2969C79.8073 75.9115 82.5 69.4375 82.5 61.875V34.375H75.625V41.25H61.875V13.75H75.625V20.625H96.25V61.875C96.25 72.1875 92.9844 81.1536 86.4531 88.7734C79.9219 96.3932 71.7292 101.005 61.875 102.609V106.562C61.875 115.156 64.8828 122.461 70.8984 128.477C76.9141 134.492 84.2188 137.5 92.8125 137.5V151.25Z" fill="white"/>
</g>
</svg>
